<mxfile host="app.diagrams.net" modified="2024-05-30T19:14:37.834Z" agent="Mozilla/5.0 (Windows NT 10.0; Win64; x64) AppleWebKit/537.36 (KHTML, like Gecko) Chrome/125.0.0.0 Safari/537.36" version="24.4.10" etag="UQiBbtZr5Iorp-lRlVrz" type="github">
  <diagram name="Page-1" id="sy4z7fNt528qL8P2U1eR">
    <mxGraphModel>
      <root>
        <mxCell id="0" />
        <mxCell id="1" parent="0" />
      </root>
    </mxGraphModel>
  </diagram>
</mxfile>
